 <svg  version="1.0" xmlns="http://www.w3.org/2000/svg"  width="450.000000pt" height="450.000000pt" viewBox="0 0 450.000000 450.000000"  preserveAspectRatio="xMidYMid meet">  <g transform="translate(0.000000,450.000000) scale(0.100000,-0.100000)" fill="#f90b0b" stroke="none"> <path d="M1488 4015 c-101 -69 -172 -262 -150 -405 5 -36 6 -66 2 -68 -5 -2 -26 -27 -48 -55 -111 -144 -162 -289 -168 -480 -2 -66 -6 -122 -9 -127 -3 -4 -30 -11 -60 -15 -56 -7 -158 -45 -169 -64 -14 -21 16 -20 69 3 61 27 156 49 167 38 6 -6 25 -64 59 -181 2 -9 -17 -25 -53 -43 -32 -17 -58 -37 -58 -45 0 -17 20 -12 89 20 l44 20 20 -29 c12 -16 40 -49 64 -73 l42 -43 -54 -50 c-50 -45 -71 -88 -45 -88 6 0 10 4 10 9 0 5 28 31 61 59 l62 50 26 -19 c51 -37 254 -98 287 -85 9 3 14 1 12 -5 -2 -5 -44 -28 -93 -51 -170 -76 -236 -145 -243 -253 -4 -71 17 -114 73 -146 37 -22 43 -45 25 -95 -6 -14 -15 -58 -20 -96 -8 -55 -7 -74 4 -97 24 -45 81 -88 140 -105 l56 -17 0 -113 c0 -141 15 -170 100 -201 50 -17 82 -19 325 -20 202 0 279 3 305 13 19 8 80 17 136 22 161 12 199 41 208 161 2 35 8 85 12 112 l7 47 53 0 c98 0 111 42 79 254 -8 55 -15 102 -15 106 0 4 28 10 62 13 37 3 71 13 87 24 41 31 70 100 71 165 l0 56 68 46 c38 25 76 48 84 51 8 3 51 -13 94 -36 l79 -41 95 4 c81 3 104 9 161 36 73 35 152 111 190 183 36 67 34 184 -4 261 -49 99 -152 175 -267 196 -44 8 -68 6 -131 -10 -64 -16 -85 -17 -118 -8 -47 12 -47 13 -27 124 l12 69 71 -2 c39 -1 95 -9 124 -18 73 -21 104 -22 104 -3 0 18 -111 45 -222 54 -43 3 -79 6 -80 6 0 0 -4 24 -8 53 -19 144 -46 226 -105 312 l-28 41 16 62 c14 53 15 66 3 94 -8 18 -17 69 -21 113 -12 134 -56 287 -86 299 -39 15 -196 -30 -307 -87 -64 -33 -80 -38 -88 -26 -5 8 -9 17 -9 20 0 16 -89 94 -125 110 -108 49 -180 3 -239 -153 l-18 -47 -207 -3 -206 -3 -22 26 c-52 61 -216 168 -287 188 -29 7 -40 5 -68 -14z m1042 -45 c50 -25 97 -82 121 -145 25 -66 25 -69 -14 -87 -28 -13 -36 -14 -52 -2 -27 20 -68 17 -93 -6 -37 -35 -24 -102 24 -120 18 -7 24 -17 24 -40 0 -25 -6 -32 -37 -46 -22 -9 -68 -16 -107 -16 -61 0 -72 2 -88 22 -10 12 -21 34 -25 47 -12 52 35 242 85 340 38 74 88 91 162 53z m-1040 6 c0 -2 -7 -9 -15 -16 -13 -11 -14 -10 -9 4 5 14 24 23 24 12z m140 -43 c56 -33 136 -104 193 -172 12 -14 25 -20 40 -16 95 22 369 28 388 8 4 -4 2 -38 -3 -76 -6 -37 -7 -87 -4 -112 9 -58 51 -105 98 -106 67 -2 114 2 160 13 45 11 48 11 68 -14 23 -29 95 -68 127 -68 16 0 29 -15 51 -62 49 -101 81 -128 152 -128 22 0 53 6 69 14 29 15 97 85 126 129 9 15 21 27 25 27 4 0 24 -31 44 -69 37 -71 66 -171 66 -232 0 -36 -1 -37 -47 -43 -82 -11 -142 -27 -153 -41 -19 -23 5 -26 72 -10 35 8 78 15 96 15 29 0 32 -3 32 -30 0 -16 -5 -52 -11 -80 l-11 -50 -74 0 c-56 0 -74 -3 -74 -14 0 -9 19 -15 59 -19 33 -3 64 -8 70 -11 7 -5 3 -25 -10 -59 -31 -78 -34 -80 -106 -73 -51 5 -63 4 -63 -8 0 -17 22 -26 66 -26 19 0 34 -4 34 -9 0 -20 -99 -94 -176 -132 -170 -83 -410 -122 -734 -118 -216 3 -410 18 -561 44 -99 17 -219 60 -219 79 0 6 14 20 30 31 29 20 40 45 19 45 -5 0 -27 -11 -47 -25 -20 -14 -42 -25 -48 -25 -17 0 -116 109 -109 120 3 5 33 15 65 22 58 12 74 23 47 34 -13 5 -85 -8 -120 -22 -13 -4 -21 11 -41 78 -38 124 -42 118 64 118 50 0 90 4 90 9 0 14 -39 21 -117 21 -39 0 -74 4 -78 10 -3 5 -1 65 4 133 20 235 84 366 255 515 45 39 43 67 -3 57 -26 -5 -29 -3 -35 25 -11 56 10 185 40 242 27 53 75 98 103 98 14 0 56 -17 91 -37z m1423 -30 c25 -80 37 -140 37 -185 l0 -43 -107 3 c-100 4 -108 5 -126 29 -23 28 -74 53 -111 53 -24 0 -36 16 -36 51 0 30 234 137 302 139 23 0 28 -6 41 -47z m-1279 -35 c17 -15 34 -28 38 -28 5 0 7 -4 3 -10 -3 -5 -13 -2 -23 8 -10 9 -38 35 -62 56 -30 26 -35 33 -15 21 17 -10 43 -31 59 -47z m935 -22 c-23 -23 -26 -23 -36 -7 -9 14 -7 17 10 18 11 1 25 7 30 12 6 6 13 9 15 6 3 -3 -6 -16 -19 -29z m-823 -57 c29 -1 29 -1 -6 -11 -28 -8 -36 -7 -47 8 -19 26 -16 40 5 21 10 -10 32 -17 48 -18z m406 0 c-9 -24 -9 -24 -44 -10 -36 14 -36 22 1 15 16 -4 32 -1 35 5 12 18 16 12 8 -10z m415 -45 c-3 -3 -12 -4 -19 -1 -8 3 -5 6 6 6 11 1 17 -2 13 -5z m-130 -35 c8 -8 6 -20 -9 -45 -17 -30 -22 -32 -44 -22 -26 12 -32 46 -12 66 15 15 50 16 65 1z m199 1 c71 -25 100 -135 55 -212 -68 -114 -251 -69 -251 62 0 108 99 184 196 150z m354 0 c0 -5 -5 -10 -11 -10 -5 0 -7 5 -4 10 3 6 8 10 11 10 2 0 4 -4 4 -10z m-1763 -67 c-2 -16 -4 -5 -4 22 0 28 2 40 4 28 2 -13 2 -35 0 -50z m1756 7 c-3 -11 -9 -20 -14 -20 -11 0 -11 3 -3 24 9 23 23 20 17 -4z m-26 -34 c37 -19 47 -44 38 -94 -18 -97 -145 -266 -210 -278 -35 -6 -82 9 -102 34 -27 34 -64 117 -53 120 6 2 24 15 39 28 l29 24 26 -21 c37 -29 73 -19 92 27 14 32 13 38 -1 61 -10 14 -26 28 -36 30 -10 3 -19 10 -20 17 0 6 -2 20 -4 31 -7 38 14 47 95 42 42 -2 90 -12 107 -21z m-1703 -32 c9 -8 22 -12 28 -8 13 7 -4 -10 -71 -70 l-35 -31 28 34 c20 25 27 43 24 63 -5 32 3 35 26 12z m1169 -68 c4 -10 1 -13 -8 -9 -8 3 -12 9 -9 14 7 12 11 11 17 -5z m361 -12 c10 -26 7 -42 -11 -48 -23 -9 -47 17 -38 43 7 25 40 28 49 5z m230 -114 c39 -59 66 -109 66 -122 0 -6 -18 17 -39 53 -27 44 -45 64 -58 63 -17 0 -18 3 -9 23 6 12 12 23 12 23 1 0 13 -18 28 -40z m95 -230 c0 -10 -3 -8 -9 5 -12 27 -12 43 0 25 5 -8 9 -22 9 -30z m-2092 -92 c-3 -7 -5 -2 -5 12 0 14 2 19 5 13 2 -7 2 -19 0 -25z m2113 -72 c-7 -7 -15 -5 -27 7 -11 11 -13 17 -5 17 7 0 12 12 12 28 1 27 1 27 16 -7 10 -24 11 -38 4 -45z m-13 -88 c-3 -7 -5 -2 -5 12 0 14 2 19 5 13 2 -7 2 -19 0 -25z m-2091 -54 c-5 -13 -10 -14 -18 -6 -6 6 -8 18 -4 28 5 13 10 14 18 6 6 -6 8 -18 4 -28z m2081 4 c-3 -7 -5 -2 -5 12 0 14 2 19 5 13 2 -7 2 -19 0 -25z m-2075 -53 c3 -13 1 -22 -3 -19 -9 5 -13 44 -5 44 2 0 6 -11 8 -25z m2059 -49 c-29 -60 -40 -67 -20 -12 10 27 10 39 1 48 -15 15 17 41 34 27 7 -6 3 -25 -15 -63z m421 0 c67 -39 144 -125 159 -177 7 -24 13 -71 13 -105 0 -75 -29 -130 -106 -199 -62 -55 -103 -78 -182 -98 -57 -15 -59 -15 -81 7 -13 13 -25 41 -29 68 -4 28 -22 70 -45 105 -36 55 -144 165 -173 176 -19 7 26 90 82 150 73 79 141 108 245 103 55 -2 81 -9 117 -30z m-342 2 c0 -6 -11 -19 -25 -30 -14 -11 -37 -39 -51 -64 -14 -24 -32 -44 -40 -44 -8 0 -48 -31 -90 -70 -41 -38 -83 -70 -92 -70 -10 0 -1 10 22 26 55 37 97 86 92 107 -2 10 2 17 10 17 7 0 21 11 30 25 19 30 31 26 15 -4 -9 -16 -9 -19 2 -15 13 5 56 83 70 125 6 18 57 15 57 -3z m-2123 -30 c-3 -8 -6 -5 -6 6 -1 11 2 17 5 13 3 -3 4 -12 1 -19z m48 -88 c-3 -5 1 -10 7 -13 7 -2 10 -7 6 -11 -12 -13 -46 16 -40 36 3 14 7 16 18 7 8 -6 12 -15 9 -19z m1946 -67 c-33 -66 -41 -109 -30 -175 5 -33 7 -69 4 -79 -4 -11 -31 -35 -62 -55 l-55 -35 -33 33 c-54 56 -149 74 -214 39 -31 -16 -39 -17 -79 -5 -61 19 -73 18 -65 -3 6 -16 5 -16 -10 -5 -26 22 -2 36 93 56 47 9 94 21 105 25 11 5 51 21 89 37 94 38 180 97 216 149 25 36 38 48 58 54 1 1 -6 -16 -17 -36z m-1763 -117 c13 -11 35 -26 50 -33 26 -12 26 -13 2 -7 -14 3 -42 17 -62 31 -20 14 -42 22 -47 18 -7 -3 -8 0 -5 9 7 18 30 11 62 -18z m1811 20 c9 -10 6 -29 -9 -77 -11 -35 -20 -65 -20 -66 0 -2 6 -3 14 -3 8 0 20 17 27 38 6 20 16 45 21 55 9 18 11 18 30 -3 l20 -22 -40 -41 c-33 -35 -39 -46 -31 -64 5 -14 17 -23 29 -23 12 0 19 -4 15 -10 -7 -11 37 -35 83 -45 30 -6 52 -29 40 -41 -8 -7 -128 47 -128 57 0 5 -11 9 -24 9 -26 0 -76 44 -76 67 0 8 3 12 8 10 4 -3 5 35 4 84 -3 73 -1 89 11 89 8 0 20 -6 26 -14z m-289 -32 c0 -6 -65 -34 -77 -33 -4 0 10 9 32 20 45 21 45 21 45 13z m-100 -44 c-8 -6 -22 -10 -30 -9 -9 0 -5 6 10 14 27 14 44 10 20 -5z m-53 -16 c-3 -3 -12 -4 -19 -1 -8 3 -5 6 6 6 11 1 17 -2 13 -5z m-972 -31 c50 -4 98 -7 108 -6 9 0 17 -3 17 -8 0 -4 -16 -7 -35 -5 -19 1 -35 -1 -35 -5 0 -10 45 -20 113 -25 52 -4 71 -12 155 -67 l97 -62 -130 -6 c-72 -3 -133 -4 -137 -2 -3 2 -19 27 -36 56 -55 97 -124 138 -194 115 -21 -8 -31 -5 -48 12 l-20 20 27 -5 c16 -2 69 -8 118 -12z m817 -15 c-18 -19 -24 -20 -31 -9 -5 8 -16 11 -25 8 -8 -3 -18 -2 -21 3 -6 9 21 16 70 19 l29 1 -22 -22z m723 2 c14 -16 15 -20 4 -24 -8 -2 -35 -11 -61 -19 -59 -18 -63 -3 -10 35 45 33 45 32 67 8z m-815 1 c0 -14 -18 -23 -30 -16 -6 4 -8 11 -5 16 8 12 35 12 35 0z m-563 -7 c-3 -3 -12 -4 -19 -1 -8 3 -5 6 6 6 11 1 17 -2 13 -5z m143 -5 c0 -6 -6 -9 -14 -6 -7 3 -18 1 -23 -4 -5 -5 -26 -3 -53 5 l-45 14 68 1 c43 1 67 -3 67 -10z m40 7 c0 -2 -7 -6 -15 -10 -8 -3 -15 -1 -15 4 0 6 7 10 15 10 8 0 15 -2 15 -4z m264 -8 c-3 -5 -10 -8 -17 -8 -6 0 -30 -18 -53 -41 l-42 -41 -42 29 c-24 15 -54 36 -69 45 l-26 18 50 -1 c28 -1 40 -4 28 -6 -13 -2 -23 -9 -23 -14 0 -6 28 -9 68 -7 53 2 67 6 66 19 -1 11 8 15 32 15 18 0 30 -4 28 -8z m43 6 c-3 -3 -12 -4 -19 -1 -8 3 -5 6 6 6 11 1 17 -2 13 -5z m-134 -11 c-7 -2 -21 -2 -30 0 -10 3 -4 5 12 5 17 0 24 -2 18 -5z m-503 -16 c22 -18 54 -66 84 -125 23 -45 26 -63 26 -154 0 -100 -42 -374 -73 -473 l-12 -40 -100 1 c-127 1 -206 23 -253 70 -35 35 -35 35 -29 104 6 71 24 146 40 168 13 17 78 15 101 -3 27 -20 53 -19 92 6 24 15 34 28 34 46 0 14 11 36 25 49 13 12 27 34 31 49 15 58 -42 161 -116 213 -22 15 -39 32 -40 38 0 17 101 64 140 64 19 0 42 -6 50 -13z m635 -56 c-24 -32 -50 -62 -57 -68 -17 -14 -98 -14 -98 0 0 5 21 33 48 61 36 39 58 54 92 62 25 6 48 9 52 7 4 -2 -13 -30 -37 -62z m126 56 c23 -18 37 -48 39 -87 4 -68 8 -65 -87 -62 -49 2 -92 8 -97 12 -12 12 102 150 124 149 3 0 12 -5 21 -12z m-348 -51 c57 -40 58 -41 38 -58 -20 -15 -24 -14 -89 28 -37 24 -78 52 -92 63 l-25 20 55 -6 c42 -5 68 -16 113 -47z m1141 18 c34 -33 17 -41 -48 -23 -40 11 -39 24 4 32 14 2 26 5 27 6 1 0 9 -6 17 -15z m-445 -14 c42 -21 60 -49 39 -61 -95 -54 -122 -103 -73 -135 23 -15 27 -15 71 10 26 15 49 25 51 22 7 -7 -20 -101 -38 -132 -28 -46 -77 -64 -135 -48 -31 8 -41 38 -54 155 -6 57 -12 119 -15 137 -3 28 0 36 28 52 41 25 78 25 126 0z m249 -2 c2 -11 -20 -31 -68 -62 -39 -25 -73 -46 -76 -46 -3 0 -25 -14 -50 -31 -25 -17 -52 -29 -62 -27 -33 6 -17 33 43 71 33 21 87 55 120 77 63 41 88 46 93 18z m-1565 -7 c-3 -13 -11 -17 -24 -14 -33 9 -22 24 23 32 3 0 4 -7 1 -18z m1096 5 c23 -13 28 -21 29 -63 3 -63 39 -308 51 -351 6 -18 16 -87 22 -153 11 -107 11 -121 -3 -136 -18 -17 -92 -23 -106 -8 -5 6 -12 129 -16 275 -6 238 -15 356 -32 426 -7 29 12 32 55 10z m-1069 -61 c56 -29 110 -112 110 -170 0 -14 -10 -35 -21 -46 -12 -12 -25 -36 -30 -54 -13 -44 -52 -62 -88 -39 -17 12 -47 18 -93 18 -62 1 -70 4 -99 33 -25 24 -33 42 -36 80 -4 42 -1 54 29 98 23 35 49 58 87 78 57 29 87 30 141 2z m330 -54 c0 -6 -4 -13 -10 -16 -5 -3 -10 1 -10 9 0 9 5 16 10 16 6 0 10 -4 10 -9z m640 -19 l35 -8 3 -139 3 -140 -328 3 c-181 2 -334 5 -341 7 -10 4 -11 34 -6 137 4 73 9 135 11 138 17 19 541 21 623 2z m210 -232 c0 -5 -2 -10 -4 -10 -3 0 -8 5 -11 10 -3 6 -1 10 4 10 6 0 11 -4 11 -10z m-862 -77 c-7 -9 -12 -51 -13 -106 -2 -198 -2 -197 -30 -197 -22 0 -25 4 -25 33 0 17 4 48 9 67 5 19 17 81 26 137 15 84 21 101 32 92 10 -9 11 -15 1 -26z m678 -11 c7 -4 13 -18 14 -32 5 -59 28 -55 -317 -52 -175 1 -328 4 -340 7 -19 5 -23 12 -23 45 l0 39 328 0 c180 1 332 -3 338 -7z m10 -125 c1 -1 4 -59 6 -128 l5 -127 -126 -12 c-112 -11 -359 -8 -458 6 -40 5 -122 11 -243 19 -140 8 -160 13 -160 35 0 17 9 18 135 13 100 -4 138 -3 150 7 11 10 15 35 15 108 l0 95 338 -8 c185 -4 338 -8 338 -8z m47 -177 c-7 -28 -13 -25 -13 6 0 14 4 23 9 20 5 -3 7 -15 4 -26z m-1023 -70 c0 -5 -4 -10 -10 -10 -5 0 -10 5 -10 10 0 6 5 10 10 10 6 0 10 -4 10 -10z m149 -40 c64 -5 230 -13 370 -16 l253 -7 -5 -39 c-3 -21 -17 -54 -31 -73 -42 -55 -105 -68 -321 -70 -246 -2 -354 14 -395 57 -16 18 -20 36 -20 96 0 65 2 73 16 68 9 -4 69 -11 133 -16z m851 -10 c0 -29 -1 -29 -18 -12 -16 15 -16 18 -2 29 20 17 20 17 20 -17z m-36 -26 c3 -9 6 -28 6 -44 0 -36 -49 -79 -93 -81 -101 -5 -100 -5 -78 56 6 17 13 42 16 58 5 26 7 27 74 27 54 0 70 -4 75 -16z m-198 -143 c-4 -6 -16 -11 -27 -11 -18 0 -18 1 -1 19 17 18 40 12 28 -8z"/> <path d="M1592 2973 c-26 -10 -40 -56 -32 -107 11 -74 58 -99 100 -53 18 18 21 31 18 74 -6 73 -38 105 -86 86z m48 -38 c26 -31 11 -112 -20 -110 -27 2 -33 10 -37 51 -4 62 27 95 57 59z"/> <path d="M2750 2952 c-16 -13 -24 -32 -27 -68 -4 -43 -2 -55 19 -79 20 -22 30 -27 51 -21 15 3 32 16 38 28 17 31 16 116 -2 132 -25 25 -55 28 -79 8z m64 -41 c7 -27 0 -81 -13 -94 -8 -8 -16 -9 -29 -1 -20 13 -29 89 -12 109 14 16 48 8 54 -14z"/> <path d="M2765 2880 c3 -5 8 -10 11 -10 2 0 4 5 4 10 0 6 -5 10 -11 10 -5 0 -7 -4 -4 -10z"/> <path d="M2143 2769 c-63 -19 -82 -82 -37 -118 41 -32 136 -30 169 4 31 30 32 56 3 89 -26 29 -85 40 -135 25z m105 -35 c48 -34 10 -84 -64 -84 -70 0 -100 59 -44 87 34 17 81 16 108 -3z"/> <path d="M3450 2647 c-31 -16 -49 -61 -33 -86 10 -15 7 -23 -13 -42 -44 -41 -21 -109 37 -109 19 0 27 -7 34 -32 13 -42 49 -57 91 -37 17 8 30 24 32 36 3 19 8 21 31 17 22 -5 32 0 50 21 28 36 27 70 -4 101 -23 23 -24 26 -10 48 39 60 -52 129 -106 80 -16 -15 -20 -15 -41 0 -27 19 -35 20 -68 3z m57 -22 c14 -10 22 -28 25 -55 3 -38 -4 -51 -17 -30 -9 15 -28 12 -22 -4 3 -7 0 -19 -6 -25 -8 -8 -5 -11 13 -11 19 0 21 -3 12 -12 -17 -17 -15 -29 3 -22 8 4 15 1 15 -5 0 -6 5 -11 11 -11 6 0 9 9 6 20 -5 21 7 28 18 10 3 -5 11 -10 17 -10 7 0 7 4 0 13 -8 10 -3 16 20 26 37 17 58 7 72 -32 8 -21 6 -31 -9 -47 -23 -25 -47 -26 -70 0 -23 26 -39 26 -25 1 23 -43 2 -81 -45 -81 -24 0 -42 47 -26 72 16 25 6 36 -19 20 -32 -19 -59 -14 -72 13 -9 21 -8 28 7 45 10 11 26 20 37 20 23 0 23 5 -2 30 -11 11 -20 27 -20 35 0 16 34 55 48 55 4 0 17 -7 29 -15z m132 1 c18 -21 9 -67 -14 -80 -11 -6 -22 -14 -25 -17 -3 -4 -16 -10 -30 -14 -24 -7 -24 -7 -7 12 9 11 17 23 17 27 0 4 -8 6 -17 4 -14 -2 -17 3 -15 22 7 52 63 79 91 46z"/> <path d="M1592 1805 c0 -16 2 -22 5 -12 2 9 2 23 0 30 -3 6 -5 -1 -5 -18z"/> <path d="M1750 1800 c8 -5 24 -10 35 -10 17 0 17 2 5 10 -8 5 -24 10 -35 10 -17 0 -17 -2 -5 -10z"/> <path d="M1698 1793 c7 -3 16 -2 19 1 4 3 -2 6 -13 5 -11 0 -14 -3 -6 -6z"/> <path d="M1658 1773 c7 -3 16 -2 19 1 4 3 -2 6 -13 5 -11 0 -14 -3 -6 -6z"/> <path d="M1833 1766 c9 -7 17 -18 17 -24 0 -6 4 -13 10 -17 5 -3 5 7 -1 25 -7 17 -18 30 -27 30 -15 -1 -15 -2 1 -14z"/> <path d="M1713 1724 c0 -13 4 -24 10 -24 6 0 7 3 4 7 -4 3 -2 12 3 18 7 9 6 14 -3 18 -10 4 -14 -2 -14 -19z"/> <path d="M1770 1735 c-14 -16 -3 -20 19 -6 8 5 9 11 3 15 -5 3 -15 -1 -22 -9z"/> <path d="M1568 1705 c2 -14 11 -25 19 -25 8 0 12 4 9 9 -9 14 23 22 44 11 9 -5 20 -21 22 -35 6 -27 -10 -35 -59 -32 -26 1 -28 8 -11 25 21 21 3 13 -33 -14 -19 -15 -26 -24 -17 -21 11 4 21 -1 28 -11 6 -10 13 -13 17 -7 9 11 55 16 48 5 -6 -10 30 -41 38 -34 4 4 4 18 1 31 -5 17 -3 22 8 18 15 -6 17 23 4 62 -7 23 -52 43 -96 43 -24 0 -27 -3 -22 -25z"/> <path d="M1785 1690 c3 -5 11 -10 16 -10 6 0 7 5 4 10 -3 6 -11 10 -16 10 -6 0 -7 -4 -4 -10z"/> <path d="M1737 1673 c3 -7 9 -13 14 -13 5 0 9 6 9 13 0 8 -6 14 -14 14 -8 0 -12 -6 -9 -14z"/> <path d="M1846 1653 c-6 -14 -5 -15 5 -6 7 7 10 15 7 18 -3 3 -9 -2 -12 -12z"/> <path d="M1780 1613 c-22 -11 -15 -19 13 -14 4 1 17 -3 27 -9 25 -13 26 -6 2 18 -15 15 -21 16 -42 5z"/> <path d="M2336 1641 c-10 -11 -16 -26 -13 -33 3 -9 7 -7 13 7 4 11 12 23 18 27 6 4 8 9 5 13 -3 3 -14 -4 -23 -14z"/> <path d="M2410 1616 c0 -9 5 -16 10 -16 6 0 10 4 10 9 0 6 -4 13 -10 16 -5 3 -10 -1 -10 -9z"/> <path d="M2460 1620 c-8 -5 -11 -12 -8 -16 10 -9 38 3 38 16 0 12 -10 13 -30 0z"/> <path d="M2550 1621 c0 -6 5 -13 10 -16 6 -3 10 1 10 9 0 9 -4 16 -10 16 -5 0 -10 -4 -10 -9z"/> <path d="M2028 1613 c6 -2 18 -2 25 0 6 3 1 5 -13 5 -14 0 -19 -2 -12 -5z"/> <path d="M2117 1599 c7 -7 15 -10 18 -7 3 3 -2 9 -12 12 -14 6 -15 5 -6 -5z"/> <path d="M2403 1583 c-7 -3 -13 -9 -13 -15 0 -5 6 -8 13 -5 6 2 20 -3 30 -11 16 -14 19 -14 30 0 6 9 21 18 32 21 20 4 20 4 1 12 -13 6 -21 4 -24 -3 -4 -14 -49 -16 -54 -3 -1 4 -9 6 -15 4z"/> <path d="M2150 1575 c0 -18 19 -40 26 -32 4 4 0 15 -9 24 -9 10 -17 13 -17 8z"/> <path d="M2550 1557 c0 -7 -9 -20 -20 -30 -22 -19 -25 -33 -10 -42 6 -4 8 -10 6 -14 -3 -4 4 -8 15 -8 10 -1 19 2 19 8 0 5 3 8 8 8 28 -5 62 3 57 12 -4 6 -7 26 -7 45 0 32 -2 34 -34 34 -21 0 -34 -5 -34 -13z m34 -22 c-4 -9 1 -18 11 -21 22 -9 1 -24 -33 -24 -20 0 -22 4 -16 23 6 21 21 37 36 37 4 0 5 -7 2 -15z"/> <path d="M2030 1546 c0 -8 -3 -21 -6 -30 -4 -9 -1 -16 6 -16 7 0 19 -8 26 -17 9 -12 13 -14 14 -5 0 7 -7 20 -15 28 -8 8 -12 21 -9 28 3 8 1 17 -5 21 -6 3 -11 0 -11 -9z"/> <path d="M2080 1540 c0 -5 4 -10 9 -10 6 0 13 5 16 10 3 6 -1 10 -9 10 -9 0 -16 -4 -16 -10z"/> <path d="M2332 1531 c17 -29 58 -59 58 -42 0 6 -6 11 -14 11 -8 0 -24 12 -36 28 -18 22 -19 22 -8 3z"/> <path d="M2095 1500 c3 -5 13 -10 21 -10 8 0 12 5 9 10 -3 6 -13 10 -21 10 -8 0 -12 -4 -9 -10z"/> <path d="M2170 1495 c0 -12 -6 -27 -12 -34 -11 -10 -10 -11 4 -6 21 8 29 28 17 46 -7 11 -9 9 -9 -6z"/> <path d="M2423 1483 c9 -2 25 -2 35 0 9 3 1 5 -18 5 -19 0 -27 -2 -17 -5z"/> <path d="M1088 1215 c-72 -20 -175 -74 -212 -112 -38 -40 -61 -100 -53 -135 17 -65 60 -94 248 -163 67 -25 128 -50 135 -56 18 -15 18 -53 -1 -69 -8 -7 -15 -19 -15 -28 0 -8 -3 -13 -6 -10 -3 4 -29 -4 -57 -17 -38 -18 -61 -22 -91 -18 -53 7 -66 18 -66 59 0 41 -29 74 -65 74 -66 0 -111 -57 -98 -122 9 -45 82 -115 130 -125 21 -4 74 -8 118 -8 69 1 89 5 135 29 115 60 160 118 163 209 4 97 -39 134 -244 210 -85 32 -129 55 -129 68 0 22 63 69 112 84 81 24 128 20 179 -15 52 -35 68 -37 103 -9 54 42 25 120 -59 155 -42 17 -161 17 -227 -1z m211 -15 c76 -20 106 -98 50 -129 -25 -14 -29 -13 -65 15 -35 26 -46 29 -109 28 -107 -2 -205 -53 -205 -107 0 -31 22 -49 95 -77 33 -13 79 -31 102 -42 23 -10 48 -18 55 -18 7 0 26 -11 41 -25 15 -14 27 -23 27 -20 0 10 26 -18 37 -40 6 -11 8 -38 6 -60 -2 -22 -4 -47 -4 -56 -1 -46 -165 -171 -204 -155 -7 2 -17 0 -22 -5 -23 -23 -181 -1 -212 30 -10 10 -25 20 -34 24 -14 5 -37 63 -37 95 0 24 48 62 79 62 33 0 55 -27 45 -54 -3 -9 -2 -16 2 -16 5 0 15 -13 22 -29 8 -18 22 -31 35 -33 30 -4 140 10 146 20 4 4 19 15 34 25 15 10 35 33 44 52 14 29 14 39 4 58 -11 20 -67 57 -86 57 -3 0 -21 7 -41 15 -20 8 -45 15 -55 15 -11 0 -19 4 -19 9 0 5 -14 11 -32 15 -62 12 -119 49 -140 90 -18 35 -19 44 -8 77 24 73 121 144 237 173 63 16 165 19 212 6z"/> <path d="M2819 1127 c-43 -33 -46 -94 -6 -122 34 -24 94 -19 122 10 32 31 32 65 0 99 -27 29 -86 36 -116 13z m104 -25 c9 -8 17 -23 17 -32 0 -26 -31 -59 -62 -64 -61 -10 -93 74 -40 106 29 18 56 15 85 -10z"/> <path d="M3469 1039 c-26 -4 -67 -16 -93 -28 l-46 -20 -36 21 c-53 31 -130 30 -182 -4 -22 -15 -50 -44 -63 -65 -24 -37 -26 -55 -29 -239 0 -12 -77 -40 -86 -31 -3 3 -6 59 -5 124 1 65 -3 124 -8 131 -4 8 -26 16 -49 19 -59 8 -74 -20 -80 -147 l-5 -98 -43 -18 c-24 -10 -44 -22 -44 -27 0 -12 38 2 78 27 l33 21 2 96 c3 107 12 125 62 124 l30 0 5 -123 c4 -105 8 -126 24 -137 13 -10 25 -11 43 -4 14 5 29 6 35 3 6 -4 8 -2 5 3 -4 6 0 13 8 17 12 4 15 25 15 95 0 128 36 201 113 230 42 16 73 13 129 -11 l50 -21 66 23 c112 38 195 28 248 -32 36 -39 43 -62 41 -134 -4 -112 -45 -177 -172 -279 -42 -34 -102 -67 -125 -70 -8 -1 -28 -8 -45 -14 -37 -15 -101 -12 -139 7 -30 15 -86 67 -86 81 0 4 -10 13 -23 20 -18 10 -34 8 -92 -14 -85 -30 -115 -31 -146 -4 -16 14 -25 17 -28 8 -6 -19 38 -49 73 -49 33 0 99 21 149 46 24 13 31 14 38 2 5 -7 9 -16 9 -19 0 -20 88 -89 126 -99 107 -30 261 35 380 161 63 68 97 137 102 211 11 146 -93 241 -239 217z"/> <path d="M1560 979 c-96 -58 -147 -144 -157 -266 -5 -66 -3 -76 21 -118 34 -57 74 -79 135 -72 38 4 52 13 89 51 24 25 46 46 51 46 4 0 22 -20 39 -45 18 -25 39 -48 48 -52 19 -7 54 25 107 100 22 32 44 56 48 55 4 -2 25 -37 46 -78 21 -41 45 -76 54 -78 15 -3 68 73 91 130 4 10 12 18 18 18 5 0 10 5 10 10 0 16 -40 -8 -48 -28 -18 -44 -57 -102 -69 -102 -7 0 -27 29 -44 64 -17 36 -38 67 -46 70 -15 6 -53 -10 -53 -22 0 -4 -14 -21 -30 -39 -17 -18 -30 -36 -30 -41 0 -17 -37 -42 -53 -36 -9 3 -26 21 -38 40 -36 59 -54 61 -101 15 -22 -23 -46 -41 -54 -41 -7 0 -16 -4 -19 -10 -9 -15 -52 -12 -85 5 -46 24 -67 70 -64 140 4 81 7 93 31 145 56 117 155 165 256 123 20 -9 37 -19 37 -24 0 -4 3 -14 6 -22 3 -8 -5 -24 -17 -36 -17 -16 -25 -18 -36 -9 -36 29 -152 -1 -153 -39 0 -7 -4 -13 -9 -13 -14 0 -35 -103 -27 -133 14 -59 100 -37 135 34 8 17 25 36 38 42 21 10 28 7 57 -26 18 -20 39 -37 47 -37 22 1 60 39 108 108 24 34 50 62 57 62 21 0 70 -81 65 -105 -1 -5 3 -5 9 1 18 18 -33 112 -66 120 -14 4 -26 5 -28 3 -2 -2 -31 -41 -65 -86 -35 -46 -69 -83 -76 -83 -7 0 -28 18 -45 40 -34 42 -50 49 -72 26 -31 -32 -68 -76 -68 -82 0 -14 -45 -41 -62 -36 -43 11 -6 153 49 189 21 14 32 15 69 5 58 -16 72 -15 92 4 20 20 21 76 2 96 -41 41 -146 50 -200 17z"/> <path d="M2350 971 c-41 -41 -41 -90 0 -128 l30 -28 -25 -52 c-13 -29 -31 -53 -38 -53 -8 0 -33 30 -56 68 -50 83 -75 112 -94 112 -16 0 -60 -48 -90 -99 -24 -40 -6 -40 24 0 60 79 65 83 77 68 37 -43 73 -94 84 -119 16 -36 54 -56 75 -39 8 7 23 31 34 53 22 46 18 85 -12 112 -26 23 -24 66 4 91 31 28 61 26 94 -5 15 -15 31 -27 35 -27 3 0 9 -3 12 -6 4 -3 23 -3 44 0 20 4 53 4 72 1 50 -7 60 -35 53 -146 -4 -56 -2 -93 4 -97 6 -4 11 23 13 71 6 139 5 150 -15 172 -17 19 -28 21 -96 19 -73 -3 -77 -2 -101 25 -36 43 -90 46 -128 7z"/> <path d="M3170 899 c0 -9 -7 -23 -16 -30 -14 -11 -16 -28 -11 -95 4 -70 9 -87 38 -132 19 -29 48 -59 67 -67 30 -15 37 -15 85 1 29 9 55 21 58 27 4 5 16 7 27 5 15 -4 19 -2 15 8 -3 8 -1 14 4 14 5 0 19 9 32 21 12 12 25 18 28 15 12 -12 82 103 90 149 5 27 -16 75 -33 75 -8 0 -14 4 -14 9 0 23 -108 -11 -183 -57 -51 -31 -78 -26 -99 18 l-17 35 -1 -32 c0 -59 60 -84 111 -45 31 24 113 61 148 68 39 8 71 -20 71 -64 0 -38 -5 -46 -82 -123 -56 -56 -166 -119 -207 -119 -53 0 -122 113 -124 205 -1 60 22 105 53 105 11 0 20 5 20 10 0 14 -27 13 -36 -1 -4 -8 -9 -7 -15 2 -7 11 -9 11 -9 -2z"/> <path d="M2508 828 c-25 -8 -37 -28 -44 -67 -2 -7 -7 -18 -13 -24 -6 -6 -11 -17 -11 -25 0 -25 -43 -106 -74 -139 -49 -54 -75 -45 -145 50 -57 79 -66 64 -10 -17 68 -100 110 -110 173 -43 38 40 67 102 103 222 7 25 14 30 38 30 l30 0 0 -110 c0 -60 4 -120 8 -133 10 -28 49 -46 98 -44 44 1 177 50 139 51 -14 1 -38 -6 -54 -14 -16 -9 -31 -13 -34 -10 -3 3 -11 0 -18 -6 -23 -19 -112 7 -115 34 -1 7 -3 57 -4 112 -2 107 -5 138 -13 130 -3 -3 -10 -1 -16 4 -6 5 -23 4 -38 -1z"/> <path d="M3601 824 c0 -11 3 -14 6 -6 3 7 2 16 -1 19 -3 4 -6 -2 -5 -13z"/> </g> </svg> 